<svg xmlns="http://www.w3.org/2000/svg" width="1440" height="900"><path d="M781,480L781,564L832,502Z" fill="#6cc2cb" stroke="#6cc2cb" stroke-width="1.51"/><path d="M781,564L842,591L832,502Z" fill="#64bdcd" stroke="#64bdcd" stroke-width="1.51"/><path d="M832,502L864,418L781,480Z" fill="#70c4c9" stroke="#70c4c9" stroke-width="1.51"/><path d="M918,497L864,418L832,502Z" fill="#6bc1cb" stroke="#6bc1cb" stroke-width="1.51"/><path d="M842,591L918,497L832,502Z" fill="#63bdcd" stroke="#63bdcd" stroke-width="1.51"/><path d="M781,480L664,499L781,564Z" fill="#71c5c9" stroke="#71c5c9" stroke-width="1.51"/><path d="M672,395L664,499L781,480Z" fill="#7cccc4" stroke="#7cccc4" stroke-width="1.51"/><path d="M864,418L764,392L781,480Z" fill="#78c8c6" stroke="#78c8c6" stroke-width="1.51"/><path d="M664,499L665,593L781,564Z" fill="#70c4c9" stroke="#70c4c9" stroke-width="1.51"/><path d="M781,564L762,678L842,591Z" fill="#5fb9ce" stroke="#5fb9ce" stroke-width="1.51"/><path d="M665,593L762,678L781,564Z" fill="#65bdcc" stroke="#65bdcc" stroke-width="1.51"/><path d="M762,678L840,675L842,591Z" fill="#59b4cc" stroke="#59b4cc" stroke-width="1.51"/><path d="M842,591L947,579L918,497Z" fill="#5bb8d0" stroke="#5bb8d0" stroke-width="1.51"/><path d="M918,673L947,579L842,591Z" fill="#51b3d1" stroke="#51b3d1" stroke-width="1.51"/><path d="M764,392L672,395L781,480Z" fill="#7eccc3" stroke="#7eccc3" stroke-width="1.51"/><path d="M918,497L946,417L864,418Z" fill="#6bc1ca" stroke="#6bc1ca" stroke-width="1.51"/><path d="M855,311L769,332L764,392Z" fill="#86cdc2" stroke="#86cdc2" stroke-width="1.51"/><path d="M1016,495L946,417L918,497Z" fill="#63bccc" stroke="#63bccc" stroke-width="1.51"/><path d="M764,392L769,332L672,395Z" fill="#86cfc1" stroke="#86cfc1" stroke-width="1.51"/><path d="M855,311L764,392L864,418Z" fill="#7fcac5" stroke="#7fcac5" stroke-width="1.51"/><path d="M840,675L918,673L842,591Z" fill="#53b1ce" stroke="#53b1ce" stroke-width="1.51"/><path d="M865,756L918,673L840,675Z" fill="#4ca9ca" stroke="#4ca9ca" stroke-width="1.51"/><path d="M664,499L573,589L665,593Z" fill="#78c6c7" stroke="#78c6c7" stroke-width="1.51"/><path d="M609,413L596,477L664,499Z" fill="#85cfc1" stroke="#85cfc1" stroke-width="1.51"/><path d="M665,593L662,683L762,678Z" fill="#67bac7" stroke="#67bac7" stroke-width="1.51"/><path d="M755,768L865,756L840,675Z" fill="#50a8c6" stroke="#50a8c6" stroke-width="1.51"/><path d="M574,650L662,683L665,593Z" fill="#6fbdc6" stroke="#6fbdc6" stroke-width="1.51"/><path d="M672,395L609,413L664,499Z" fill="#86d0c1" stroke="#86d0c1" stroke-width="1.51"/><path d="M587,315L609,413L672,395Z" fill="#92d4bd" stroke="#92d4bd" stroke-width="1.51"/><path d="M947,579L1004,563L918,497Z" fill="#57b5d0" stroke="#57b5d0" stroke-width="1.51"/><path d="M1019,660L1004,563L947,579Z" fill="#4aaed1" stroke="#4aaed1" stroke-width="1.51"/><path d="M946,417L855,311L864,418Z" fill="#79c6c7" stroke="#79c6c7" stroke-width="1.51"/><path d="M1004,563L1016,495L918,497Z" fill="#5ab6cd" stroke="#5ab6cd" stroke-width="1.51"/><path d="M946,417L948,302L855,311Z" fill="#7dc6c6" stroke="#7dc6c6" stroke-width="1.51"/><path d="M596,477L573,589L664,499Z" fill="#7fcac4" stroke="#7fcac4" stroke-width="1.51"/><path d="M514,483L573,589L596,477Z" fill="#86ccc2" stroke="#86ccc2" stroke-width="1.51"/><path d="M755,768L840,675L762,678Z" fill="#57aec7" stroke="#57aec7" stroke-width="1.51"/><path d="M918,673L1019,660L947,579Z" fill="#49accf" stroke="#49accf" stroke-width="1.51"/><path d="M665,748L755,768L762,678Z" fill="#5badc3" stroke="#5badc3" stroke-width="1.51"/><path d="M573,589L574,650L665,593Z" fill="#76c3c7" stroke="#76c3c7" stroke-width="1.51"/><path d="M662,683L665,748L762,678Z" fill="#62b3c4" stroke="#62b3c4" stroke-width="1.51"/><path d="M769,332L659,304L672,395Z" fill="#8fd3bf" stroke="#8fd3bf" stroke-width="1.51"/><path d="M776,235L659,304L769,332Z" fill="#93d4be" stroke="#93d4be" stroke-width="1.51"/><path d="M1016,495L1029,420L946,417Z" fill="#65bac8" stroke="#65bac8" stroke-width="1.51"/><path d="M591,734L665,748L662,683Z" fill="#68b2c1" stroke="#68b2c1" stroke-width="1.51"/><path d="M865,756L935,743L918,673Z" fill="#46a4ca" stroke="#46a4ca" stroke-width="1.51"/><path d="M935,743L1019,660L918,673Z" fill="#43a5cb" stroke="#43a5cb" stroke-width="1.51"/><path d="M1004,563L1101,508L1016,495Z" fill="#56b0ca" stroke="#56b0ca" stroke-width="1.51"/><path d="M1016,495L1101,508L1029,420Z" fill="#5db3c7" stroke="#5db3c7" stroke-width="1.51"/><path d="M1036,336L948,302L946,417Z" fill="#78c1c5" stroke="#78c1c5" stroke-width="1.51"/><path d="M855,311L845,247L769,332Z" fill="#8ccec0" stroke="#8ccec0" stroke-width="1.51"/><path d="M948,302L845,247L855,311Z" fill="#88cbc3" stroke="#88cbc3" stroke-width="1.51"/><path d="M609,413L514,483L596,477Z" fill="#8bd1c0" stroke="#8bd1c0" stroke-width="1.51"/><path d="M573,589L491,647L574,650Z" fill="#7bc3c4" stroke="#7bc3c4" stroke-width="1.51"/><path d="M493,408L514,483L609,413Z" fill="#91d4bd" stroke="#91d4bd" stroke-width="1.51"/><path d="M845,247L776,235L769,332Z" fill="#91d1c1" stroke="#91d1c1" stroke-width="1.51"/><path d="M659,304L587,315L672,395Z" fill="#95d5bc" stroke="#95d5bc" stroke-width="1.51"/><path d="M592,245L587,315L659,304Z" fill="#9fd9ba" stroke="#9fd9ba" stroke-width="1.51"/><path d="M747,851L844,840L755,768Z" fill="#50a0bf" stroke="#50a0bf" stroke-width="1.51"/><path d="M574,650L591,734L662,683Z" fill="#6fb8c2" stroke="#6fb8c2" stroke-width="1.51"/><path d="M522,735L591,734L574,650Z" fill="#73b7bf" stroke="#73b7bf" stroke-width="1.51"/><path d="M514,483L492,566L573,589Z" fill="#86cbc3" stroke="#86cbc3" stroke-width="1.51"/><path d="M948,302L941,217L845,247Z" fill="#8acbc6" stroke="#8acbc6" stroke-width="1.51"/><path d="M1029,420L1036,336L946,417Z" fill="#6fbdc5" stroke="#6fbdc5" stroke-width="1.51"/><path d="M1115,398L1036,336L1029,420Z" fill="#6db7c3" stroke="#6db7c3" stroke-width="1.51"/><path d="M1114,596L1101,508L1004,563Z" fill="#4daacb" stroke="#4daacb" stroke-width="1.51"/><path d="M1019,660L1114,596L1004,563Z" fill="#46a8cd" stroke="#46a8cd" stroke-width="1.51"/><path d="M935,743L1021,740L1019,660Z" fill="#3e9fc8" stroke="#3e9fc8" stroke-width="1.51"/><path d="M1010,851L1021,740L935,743Z" fill="#3897c4" stroke="#3897c4" stroke-width="1.51"/><path d="M927,856L935,743L865,756Z" fill="#409dc6" stroke="#409dc6" stroke-width="1.51"/><path d="M515,324L493,408L609,413Z" fill="#99d7bb" stroke="#99d7bb" stroke-width="1.51"/><path d="M514,483L411,476L492,566Z" fill="#90d0c1" stroke="#90d0c1" stroke-width="1.51"/><path d="M587,315L515,324L609,413Z" fill="#9bd7ba" stroke="#9bd7ba" stroke-width="1.51"/><path d="M776,235L657,231L659,304Z" fill="#9ad7be" stroke="#9ad7be" stroke-width="1.51"/><path d="M755,768L844,840L865,756Z" fill="#4da1c3" stroke="#4da1c3" stroke-width="1.51"/><path d="M747,851L755,768L680,837Z" fill="#56a2be" stroke="#56a2be" stroke-width="1.51"/><path d="M492,566L491,647L573,589Z" fill="#81c7c5" stroke="#81c7c5" stroke-width="1.51"/><path d="M399,575L491,647L492,566Z" fill="#87cac6" stroke="#87cac6" stroke-width="1.51"/><path d="M1100,662L1114,596L1019,660Z" fill="#40a1c9" stroke="#40a1c9" stroke-width="1.51"/><path d="M680,837L755,768L665,748Z" fill="#5ca8bf" stroke="#5ca8bf" stroke-width="1.51"/><path d="M590,837L665,748L591,734Z" fill="#68acbd" stroke="#68acbd" stroke-width="1.51"/><path d="M590,837L680,837L665,748Z" fill="#62a7bc" stroke="#62a7bc" stroke-width="1.51"/><path d="M1021,740L1100,662L1019,660Z" fill="#3d9ec8" stroke="#3d9ec8" stroke-width="1.51"/><path d="M1006,242L941,217L948,302Z" fill="#87c7c6" stroke="#87c7c6" stroke-width="1.51"/><path d="M845,247L841,160L776,235Z" fill="#96d2c5" stroke="#96d2c5" stroke-width="1.51"/><path d="M776,235L752,131L657,231Z" fill="#9fd8c3" stroke="#9fd8c3" stroke-width="1.51"/><path d="M592,245L515,324L587,315Z" fill="#a3dab7" stroke="#a3dab7" stroke-width="1.51"/><path d="M657,231L592,245L659,304Z" fill="#a0dabc" stroke="#a0dabc" stroke-width="1.51"/><path d="M491,647L522,735L574,650Z" fill="#79bcc0" stroke="#79bcc0" stroke-width="1.51"/><path d="M1101,508L1115,398L1029,420Z" fill="#60b2c4" stroke="#60b2c4" stroke-width="1.51"/><path d="M1036,336L1006,242L948,302Z" fill="#80c2c2" stroke="#80c2c2" stroke-width="1.51"/><path d="M1195,422L1115,398L1101,508Z" fill="#5dadc1" stroke="#5dadc1" stroke-width="1.51"/><path d="M1119,249L1006,242L1036,336Z" fill="#7fbec0" stroke="#7fbec0" stroke-width="1.51"/><path d="M844,840L927,856L865,756Z" fill="#439ac3" stroke="#439ac3" stroke-width="1.51"/><path d="M1021,740L1107,743L1100,662Z" fill="#3797c4" stroke="#3797c4" stroke-width="1.51"/><path d="M868,906L927,856L844,840Z" fill="#4094c0" stroke="#4094c0" stroke-width="1.51"/><path d="M941,217L841,160L845,247Z" fill="#93cfc7" stroke="#93cfc7" stroke-width="1.51"/><path d="M657,231L590,135L592,245Z" fill="#aaddbe" stroke="#aaddbe" stroke-width="1.51"/><path d="M923,136L841,160L941,217Z" fill="#96d0cb" stroke="#96d0cb" stroke-width="1.51"/><path d="M1115,398L1109,337L1036,336Z" fill="#70b6c0" stroke="#70b6c0" stroke-width="1.51"/><path d="M522,735L590,837L591,734Z" fill="#6eafbc" stroke="#6eafbc" stroke-width="1.51"/><path d="M695,931L768,926L747,851Z" fill="#5197b9" stroke="#5197b9" stroke-width="1.51"/><path d="M1099,847L1107,743L1021,740Z" fill="#3190c0" stroke="#3190c0" stroke-width="1.51"/><path d="M1211,658L1178,582L1114,596Z" fill="#3c9cc7" stroke="#3c9cc7" stroke-width="1.51"/><path d="M398,392L411,476L493,408Z" fill="#9dd8be" stroke="#9dd8be" stroke-width="1.51"/><path d="M493,408L411,476L514,483Z" fill="#95d5be" stroke="#95d5be" stroke-width="1.51"/><path d="M491,647L429,753L522,735Z" fill="#7cbabe" stroke="#7cbabe" stroke-width="1.51"/><path d="M1114,596L1178,582L1101,508Z" fill="#48a4c8" stroke="#48a4c8" stroke-width="1.51"/><path d="M1115,398L1182,312L1109,337Z" fill="#6fb2be" stroke="#6fb2be" stroke-width="1.51"/><path d="M1211,658L1114,596L1100,662Z" fill="#3a9bc6" stroke="#3a9bc6" stroke-width="1.51"/><path d="M768,926L868,906L844,840Z" fill="#4794bd" stroke="#4794bd" stroke-width="1.51"/><path d="M927,856L1010,851L935,743Z" fill="#3895c4" stroke="#3895c4" stroke-width="1.51"/><path d="M768,926L844,840L747,851Z" fill="#4c98bd" stroke="#4c98bd" stroke-width="1.51"/><path d="M841,160L752,131L776,235Z" fill="#9dd6c6" stroke="#9dd6c6" stroke-width="1.51"/><path d="M923,935L1010,851L927,856Z" fill="#358ec0" stroke="#358ec0" stroke-width="1.51"/><path d="M411,476L399,575L492,566Z" fill="#90cfc4" stroke="#90cfc4" stroke-width="1.51"/><path d="M522,735L515,838L590,837Z" fill="#70acb9" stroke="#70acb9" stroke-width="1.51"/><path d="M752,131L662,143L657,231Z" fill="#a6dbc3" stroke="#a6dbc3" stroke-width="1.51"/><path d="M592,245L490,240L515,324Z" fill="#a9ddb8" stroke="#a9ddb8" stroke-width="1.51"/><path d="M695,931L747,851L680,837Z" fill="#569dba" stroke="#569dba" stroke-width="1.51"/><path d="M1028,136L941,217L1006,242Z" fill="#8dc7c8" stroke="#8dc7c8" stroke-width="1.51"/><path d="M1028,136L923,136L941,217Z" fill="#93cbca" stroke="#93cbca" stroke-width="1.51"/><path d="M841,160L850,73L752,131Z" fill="#a1d6ca" stroke="#a1d6ca" stroke-width="1.51"/><path d="M399,575L406,649L491,647Z" fill="#87c7c6" stroke="#87c7c6" stroke-width="1.51"/><path d="M510,142L490,240L592,245Z" fill="#b1e0ba" stroke="#b1e0ba" stroke-width="1.51"/><path d="M515,324L398,392L493,408Z" fill="#a1d9bb" stroke="#a1d9bb" stroke-width="1.51"/><path d="M1207,496L1195,422L1101,508Z" fill="#56a8c2" stroke="#56a8c2" stroke-width="1.51"/><path d="M1109,337L1119,249L1036,336Z" fill="#79b9be" stroke="#79b9be" stroke-width="1.51"/><path d="M1178,582L1207,496L1101,508Z" fill="#4ca4c5" stroke="#4ca4c5" stroke-width="1.51"/><path d="M398,304L398,392L515,324Z" fill="#a8dcba" stroke="#a8dcba" stroke-width="1.51"/><path d="M411,476L339,497L399,575Z" fill="#97d3c5" stroke="#97d3c5" stroke-width="1.51"/><path d="M579,926L695,931L680,837Z" fill="#5d9bb7" stroke="#5d9bb7" stroke-width="1.51"/><path d="M590,837L579,926L680,837Z" fill="#63a1b7" stroke="#63a1b7" stroke-width="1.51"/><path d="M429,753L515,838L522,735Z" fill="#77b1ba" stroke="#77b1ba" stroke-width="1.51"/><path d="M1182,312L1119,249L1109,337Z" fill="#77b5bb" stroke="#77b5bb" stroke-width="1.51"/><path d="M406,649L429,753L491,647Z" fill="#82bfc2" stroke="#82bfc2" stroke-width="1.51"/><path d="M851,1014L868,906L768,926Z" fill="#448cb6" stroke="#448cb6" stroke-width="1.51"/><path d="M851,1014L923,935L868,906Z" fill="#3d89b7" stroke="#3d89b7" stroke-width="1.51"/><path d="M868,906L923,935L927,856Z" fill="#3a8fbf" stroke="#3a8fbf" stroke-width="1.51"/><path d="M602,46L590,135L662,143Z" fill="#b2e1c4" stroke="#b2e1c4" stroke-width="1.51"/><path d="M662,143L590,135L657,231Z" fill="#abdec1" stroke="#abdec1" stroke-width="1.51"/><path d="M1178,582L1262,511L1207,496Z" fill="#4b9fc3" stroke="#4b9fc3" stroke-width="1.51"/><path d="M1107,743L1211,658L1100,662Z" fill="#3595c3" stroke="#3595c3" stroke-width="1.51"/><path d="M1201,760L1211,658L1107,743Z" fill="#2f8ebf" stroke="#2f8ebf" stroke-width="1.51"/><path d="M1099,847L1021,740L1010,851Z" fill="#318ec0" stroke="#318ec0" stroke-width="1.51"/><path d="M1195,422L1182,312L1115,398Z" fill="#68aebe" stroke="#68aebe" stroke-width="1.51"/><path d="M1272,405L1182,312L1195,422Z" fill="#66a9bc" stroke="#66a9bc" stroke-width="1.51"/><path d="M1027,925L1099,847L1010,851Z" fill="#2d87bc" stroke="#2d87bc" stroke-width="1.51"/><path d="M430,233L398,304L490,240Z" fill="#b3e1ba" stroke="#b3e1ba" stroke-width="1.51"/><path d="M490,240L398,304L515,324Z" fill="#acdfb7" stroke="#acdfb7" stroke-width="1.51"/><path d="M923,136L850,73L841,160Z" fill="#9dd3cc" stroke="#9dd3cc" stroke-width="1.51"/><path d="M1119,162L1028,136L1006,242Z" fill="#8bc2c6" stroke="#8bc2c6" stroke-width="1.51"/><path d="M1119,162L1006,242L1119,249Z" fill="#85bec2" stroke="#85bec2" stroke-width="1.51"/><path d="M934,76L850,73L923,136Z" fill="#9cd2cf" stroke="#9cd2cf" stroke-width="1.51"/><path d="M752,131L692,73L662,143Z" fill="#aaddc7" stroke="#aaddc7" stroke-width="1.51"/><path d="M348,412L411,476L398,392Z" fill="#a1dac0" stroke="#a1dac0" stroke-width="1.51"/><path d="M348,412L339,497L411,476Z" fill="#9ed8c2" stroke="#9ed8c2" stroke-width="1.51"/><path d="M399,575L340,576L406,649Z" fill="#8eccc9" stroke="#8eccc9" stroke-width="1.51"/><path d="M406,649L336,739L429,753Z" fill="#84bcc1" stroke="#84bcc1" stroke-width="1.51"/><path d="M339,497L340,576L399,575Z" fill="#95d0c7" stroke="#95d0c7" stroke-width="1.51"/><path d="M515,838L579,926L590,837Z" fill="#6aa3b6" stroke="#6aa3b6" stroke-width="1.51"/><path d="M501,907L579,926L515,838Z" fill="#6da1b4" stroke="#6da1b4" stroke-width="1.51"/><path d="M342,335L348,412L398,392Z" fill="#a9ddbe" stroke="#a9ddbe" stroke-width="1.51"/><path d="M766,46L692,73L752,131Z" fill="#a9dcca" stroke="#a9dcca" stroke-width="1.51"/><path d="M398,304L342,335L398,392Z" fill="#addfbc" stroke="#addfbc" stroke-width="1.51"/><path d="M510,142L430,233L490,240Z" fill="#b6e3bb" stroke="#b6e3bb" stroke-width="1.51"/><path d="M923,935L1027,925L1010,851Z" fill="#3088bd" stroke="#3088bd" stroke-width="1.51"/><path d="M1028,136L934,76L923,136Z" fill="#97cdce" stroke="#97cdce" stroke-width="1.51"/><path d="M1207,496L1272,405L1195,422Z" fill="#5aa6be" stroke="#5aa6be" stroke-width="1.51"/><path d="M1293,586L1262,511L1178,582Z" fill="#449ac3" stroke="#449ac3" stroke-width="1.51"/><path d="M1177,832L1201,760L1107,743Z" fill="#2988bc" stroke="#2988bc" stroke-width="1.51"/><path d="M1211,658L1293,586L1178,582Z" fill="#3a98c5" stroke="#3a98c5" stroke-width="1.51"/><path d="M1177,832L1107,743L1099,847Z" fill="#2987bc" stroke="#2987bc" stroke-width="1.51"/><path d="M695,931L764,994L768,926Z" fill="#4e90b2" stroke="#4e90b2" stroke-width="1.51"/><path d="M923,935L1018,1026L1027,925Z" fill="#2f7fb4" stroke="#2f7fb4" stroke-width="1.51"/><path d="M689,1021L764,994L695,931Z" fill="#518dad" stroke="#518dad" stroke-width="1.51"/><path d="M590,135L510,142L592,245Z" fill="#b2e1bd" stroke="#b2e1bd" stroke-width="1.51"/><path d="M508,65L510,142L590,135Z" fill="#b9e4c0" stroke="#b9e4c0" stroke-width="1.51"/><path d="M850,73L766,46L752,131Z" fill="#a6d9cc" stroke="#a6d9cc" stroke-width="1.51"/><path d="M779,-35L766,46L845,-36Z" fill="#abdbd3" stroke="#abdbd3" stroke-width="1.51"/><path d="M575,1005L689,1021L695,931Z" fill="#598faa" stroke="#598faa" stroke-width="1.51"/><path d="M399,846L501,907L515,838Z" fill="#74a6b5" stroke="#74a6b5" stroke-width="1.51"/><path d="M399,846L515,838L429,753Z" fill="#79aeb9" stroke="#79aeb9" stroke-width="1.51"/><path d="M1205,251L1119,162L1119,249Z" fill="#81b7be" stroke="#81b7be" stroke-width="1.51"/><path d="M1028,136L1034,55L934,76Z" fill="#97cace" stroke="#97cace" stroke-width="1.51"/><path d="M323,246L342,335L398,304Z" fill="#b5e2ba" stroke="#b5e2ba" stroke-width="1.51"/><path d="M238,397L245,510L339,497Z" fill="#a5dac6" stroke="#a5dac6" stroke-width="1.51"/><path d="M1182,312L1205,251L1119,249Z" fill="#7ab3bc" stroke="#7ab3bc" stroke-width="1.51"/><path d="M1262,511L1272,405L1207,496Z" fill="#54a2be" stroke="#54a2be" stroke-width="1.51"/><path d="M1273,311L1205,251L1182,312Z" fill="#75adb8" stroke="#75adb8" stroke-width="1.51"/><path d="M1102,923L1177,832L1099,847Z" fill="#2580b9" stroke="#2580b9" stroke-width="1.51"/><path d="M340,576L318,658L406,649Z" fill="#8ec9c8" stroke="#8ec9c8" stroke-width="1.51"/><path d="M253,671L318,658L230,563Z" fill="#95cbcc" stroke="#95cbcc" stroke-width="1.51"/><path d="M245,510L340,576L339,497Z" fill="#9dd4c8" stroke="#9dd4c8" stroke-width="1.51"/><path d="M764,994L851,1014L768,926Z" fill="#4889b0" stroke="#4889b0" stroke-width="1.51"/><path d="M1262,511L1385,478L1272,405Z" fill="#529dbc" stroke="#529dbc" stroke-width="1.51"/><path d="M1300,650L1293,586L1211,658Z" fill="#3691c2" stroke="#3691c2" stroke-width="1.51"/><path d="M1300,650L1211,658L1278,759Z" fill="#2e8abe" stroke="#2e8abe" stroke-width="1.51"/><path d="M318,658L336,739L406,649Z" fill="#8ac2c5" stroke="#8ac2c5" stroke-width="1.51"/><path d="M1108,994L1102,923L1027,925Z" fill="#267ab2" stroke="#267ab2" stroke-width="1.51"/><path d="M1027,925L1102,923L1099,847Z" fill="#2881b9" stroke="#2881b9" stroke-width="1.51"/><path d="M851,1014L917,1015L923,935Z" fill="#3a82b2" stroke="#3a82b2" stroke-width="1.51"/><path d="M575,1005L695,931L579,926Z" fill="#5f94ae" stroke="#5f94ae" stroke-width="1.51"/><path d="M764,994L689,1021L851,1014Z" fill="#4a86ab" stroke="#4a86ab" stroke-width="1.51"/><path d="M851,1014L1018,1026L917,1015Z" fill="#347daf" stroke="#347daf" stroke-width="1.51"/><path d="M336,739L399,846L429,753Z" fill="#7fb3be" stroke="#7fb3be" stroke-width="1.51"/><path d="M516,1004L575,1005L579,926Z" fill="#6593a9" stroke="#6593a9" stroke-width="1.51"/><path d="M692,73L602,46L662,143Z" fill="#b1e0c7" stroke="#b1e0c7" stroke-width="1.51"/><path d="M690,-40L602,46L692,73Z" fill="#b3e1cb" stroke="#b3e1cb" stroke-width="1.51"/><path d="M1278,759L1211,658L1201,760Z" fill="#2b89bd" stroke="#2b89bd" stroke-width="1.51"/><path d="M1272,405L1273,311L1182,312Z" fill="#6ca9b8" stroke="#6ca9b8" stroke-width="1.51"/><path d="M1093,62L1028,136L1119,162Z" fill="#90c1c8" stroke="#90c1c8" stroke-width="1.51"/><path d="M1366,315L1273,311L1272,405Z" fill="#6aa4b7" stroke="#6aa4b7" stroke-width="1.51"/><path d="M1367,583L1262,511L1293,586Z" fill="#4195c0" stroke="#4195c0" stroke-width="1.51"/><path d="M934,76L924,-17L850,73Z" fill="#a0d3d3" stroke="#a0d3d3" stroke-width="1.51"/><path d="M1093,62L1034,55L1028,136Z" fill="#94c5cc" stroke="#94c5cc" stroke-width="1.51"/><path d="M1093,62L1119,162L1187,49Z" fill="#8fbdc7" stroke="#8fbdc7" stroke-width="1.51"/><path d="M516,1004L579,926L501,907Z" fill="#6a99ad" stroke="#6a99ad" stroke-width="1.51"/><path d="M510,142L402,143L430,233Z" fill="#bce5bd" stroke="#bce5bd" stroke-width="1.51"/><path d="M430,233L323,246L398,304Z" fill="#b7e3bb" stroke="#b7e3bb" stroke-width="1.51"/><path d="M602,46L508,65L590,135Z" fill="#b9e3c4" stroke="#b9e3c4" stroke-width="1.51"/><path d="M1295,856L1278,759L1177,832Z" fill="#207cb6" stroke="#207cb6" stroke-width="1.51"/><path d="M1177,832L1278,759L1201,760Z" fill="#2582b9" stroke="#2582b9" stroke-width="1.51"/><path d="M400,75L402,143L510,142Z" fill="#c2e7c1" stroke="#c2e7c1" stroke-width="1.51"/><path d="M238,397L339,497L348,412Z" fill="#a6dcc3" stroke="#a6dcc3" stroke-width="1.51"/><path d="M345,161L323,246L430,233Z" fill="#bee6be" stroke="#bee6be" stroke-width="1.51"/><path d="M238,397L348,412L342,335Z" fill="#addfc0" stroke="#addfc0" stroke-width="1.51"/><path d="M318,658L253,671L336,739Z" fill="#8ec2c6" stroke="#8ec2c6" stroke-width="1.51"/><path d="M1206,136L1119,162L1205,251Z" fill="#85b6c0" stroke="#85b6c0" stroke-width="1.51"/><path d="M917,1015L1018,1026L923,935Z" fill="#327eb2" stroke="#327eb2" stroke-width="1.51"/><path d="M1102,923L1212,928L1177,832Z" fill="#1e7ab5" stroke="#1e7ab5" stroke-width="1.51"/><path d="M689,1021L1018,1026L851,1014Z" fill="#3f81ac" stroke="#3f81ac" stroke-width="1.51"/><path d="M1030,-45L924,-17L1034,55Z" fill="#9dcdd4" stroke="#9dcdd4" stroke-width="1.51"/><path d="M1034,55L924,-17L934,76Z" fill="#9ccfd3" stroke="#9ccfd3" stroke-width="1.51"/><path d="M766,46L690,-40L692,73Z" fill="#aedfce" stroke="#aedfce" stroke-width="1.51"/><path d="M575,1005L428,1015L689,1021Z" fill="#638ea4" stroke="#638ea4" stroke-width="1.51"/><path d="M428,1015L516,1004L501,907Z" fill="#6e96a8" stroke="#6e96a8" stroke-width="1.51"/><path d="M845,-36L766,46L850,73Z" fill="#a7d8d1" stroke="#a7d8d1" stroke-width="1.51"/><path d="M602,46L571,-8L508,65Z" fill="#bce5c7" stroke="#bce5c7" stroke-width="1.51"/><path d="M1273,311L1267,225L1205,251Z" fill="#78acb9" stroke="#78acb9" stroke-width="1.51"/><path d="M1363,222L1267,225L1273,311Z" fill="#77a8b7" stroke="#77a8b7" stroke-width="1.51"/><path d="M230,563L318,658L340,576Z" fill="#96cecc" stroke="#96cecc" stroke-width="1.51"/><path d="M336,739L321,825L399,846Z" fill="#81b2bd" stroke="#81b2bd" stroke-width="1.51"/><path d="M399,846L401,936L501,907Z" fill="#76a3b5" stroke="#76a3b5" stroke-width="1.51"/><path d="M924,-17L845,-36L850,73Z" fill="#a5d6d4" stroke="#a5d6d4" stroke-width="1.51"/><path d="M239,751L321,825L336,739Z" fill="#88b7c1" stroke="#88b7c1" stroke-width="1.51"/><path d="M245,510L230,563L340,576Z" fill="#9dd3cb" stroke="#9dd3cb" stroke-width="1.51"/><path d="M1267,225L1206,136L1205,251Z" fill="#80b1bd" stroke="#80b1bd" stroke-width="1.51"/><path d="M1018,1026L1108,994L1027,925Z" fill="#2978af" stroke="#2978af" stroke-width="1.51"/><path d="M245,510L177,511L230,563Z" fill="#a2d6cc" stroke="#a2d6cc" stroke-width="1.51"/><path d="M244,322L238,397L342,335Z" fill="#b4e1c0" stroke="#b4e1c0" stroke-width="1.51"/><path d="M324,939L401,936L399,846Z" fill="#7aa3b6" stroke="#7aa3b6" stroke-width="1.51"/><path d="M745,-102L690,-40L779,-35Z" fill="#b3e0d4" stroke="#b3e0d4" stroke-width="1.51"/><path d="M779,-35L690,-40L766,46Z" fill="#afded1" stroke="#afded1" stroke-width="1.51"/><path d="M690,-40L571,-8L602,46Z" fill="#b9e4cc" stroke="#b9e4cc" stroke-width="1.51"/><path d="M400,75L345,161L402,143Z" fill="#c6e9c3" stroke="#c6e9c3" stroke-width="1.51"/><path d="M323,246L244,322L342,335Z" fill="#b9e4bc" stroke="#b9e4bc" stroke-width="1.51"/><path d="M402,143L345,161L430,233Z" fill="#c0e6bf" stroke="#c0e6bf" stroke-width="1.51"/><path d="M400,75L510,142L508,65Z" fill="#c0e7c2" stroke="#c0e7c2" stroke-width="1.51"/><path d="M1300,650L1367,583L1293,586Z" fill="#3690c1" stroke="#3690c1" stroke-width="1.51"/><path d="M1361,668L1367,583L1300,650Z" fill="#318abe" stroke="#318abe" stroke-width="1.51"/><path d="M1108,994L1212,928L1102,923Z" fill="#1f75af" stroke="#1f75af" stroke-width="1.51"/><path d="M1358,743L1361,668L1300,650Z" fill="#2b85bb" stroke="#2b85bb" stroke-width="1.51"/><path d="M240,234L244,322L323,246Z" fill="#bfe6bf" stroke="#bfe6bf" stroke-width="1.51"/><path d="M1358,743L1300,650L1278,759Z" fill="#2783ba" stroke="#2783ba" stroke-width="1.51"/><path d="M1367,583L1385,478L1262,511Z" fill="#4795bd" stroke="#4795bd" stroke-width="1.51"/><path d="M1461,486L1385,478L1367,583Z" fill="#478fb8" stroke="#478fb8" stroke-width="1.51"/><path d="M500,-16L400,75L508,65Z" fill="#c4e8c6" stroke="#c4e8c6" stroke-width="1.51"/><path d="M349,1006L428,1015L401,936Z" fill="#7597aa" stroke="#7597aa" stroke-width="1.51"/><path d="M253,671L239,751L336,739Z" fill="#8dbec5" stroke="#8dbec5" stroke-width="1.51"/><path d="M162,745L239,751L253,671Z" fill="#90c0c8" stroke="#90c0c8" stroke-width="1.51"/><path d="M1212,928L1295,856L1177,832Z" fill="#1c77b4" stroke="#1c77b4" stroke-width="1.51"/><path d="M1385,478L1387,404L1272,405Z" fill="#589bb9" stroke="#589bb9" stroke-width="1.51"/><path d="M1361,668L1438,655L1367,583Z" fill="#3086bb" stroke="#3086bb" stroke-width="1.51"/><path d="M1295,856L1358,743L1278,759Z" fill="#1f7ab6" stroke="#1f7ab6" stroke-width="1.51"/><path d="M1387,404L1366,315L1272,405Z" fill="#639eb6" stroke="#639eb6" stroke-width="1.51"/><path d="M1300,60L1187,49L1206,136Z" fill="#8bb5c4" stroke="#8bb5c4" stroke-width="1.51"/><path d="M571,-8L500,-16L508,65Z" fill="#c1e7c7" stroke="#c1e7c7" stroke-width="1.51"/><path d="M507,-104L500,-16L571,-8Z" fill="#c5e8cb" stroke="#c5e8cb" stroke-width="1.51"/><path d="M401,936L428,1015L501,907Z" fill="#729bad" stroke="#729bad" stroke-width="1.51"/><path d="M516,1004L428,1015L575,1005Z" fill="#6a91a3" stroke="#6a91a3" stroke-width="1.51"/><path d="M324,939L399,846L321,825Z" fill="#7ea9ba" stroke="#7ea9ba" stroke-width="1.51"/><path d="M933,-113L836,-105L845,-36Z" fill="#abd9db" stroke="#abd9db" stroke-width="1.51"/><path d="M836,-105L745,-102L779,-35Z" fill="#b1ded7" stroke="#b1ded7" stroke-width="1.51"/><path d="M1093,62L1030,-45L1034,55Z" fill="#97c7d0" stroke="#97c7d0" stroke-width="1.51"/><path d="M1122,-35L1030,-45L1093,62Z" fill="#98c4d1" stroke="#98c4d1" stroke-width="1.51"/><path d="M1206,136L1187,49L1119,162Z" fill="#8bb9c4" stroke="#8bb9c4" stroke-width="1.51"/><path d="M1297,132L1206,136L1267,225Z" fill="#84afbd" stroke="#84afbd" stroke-width="1.51"/><path d="M161,425L177,511L245,510Z" fill="#a7dacb" stroke="#a7dacb" stroke-width="1.51"/><path d="M230,563L153,583L253,671Z" fill="#99d0d0" stroke="#99d0d0" stroke-width="1.51"/><path d="M161,425L245,510L238,397Z" fill="#aaddc8" stroke="#aaddc8" stroke-width="1.51"/><path d="M142,325L161,425L238,397Z" fill="#b4e2c6" stroke="#b4e2c6" stroke-width="1.51"/><path d="M345,161L240,234L323,246Z" fill="#c3e8c1" stroke="#c3e8c1" stroke-width="1.51"/><path d="M237,147L240,234L345,161Z" fill="#c9eac3" stroke="#c9eac3" stroke-width="1.51"/><path d="M239,751L249,829L321,825Z" fill="#88b4c1" stroke="#88b4c1" stroke-width="1.51"/><path d="M162,823L249,829L239,751Z" fill="#8bb5c3" stroke="#8bb5c3" stroke-width="1.51"/><path d="M690,-40L659,-102L571,-8Z" fill="#bbe4d0" stroke="#bbe4d0" stroke-width="1.51"/><path d="M836,-105L779,-35L845,-36Z" fill="#addbd7" stroke="#addbd7" stroke-width="1.51"/><path d="M248,926L324,939L321,825Z" fill="#81a7ba" stroke="#81a7ba" stroke-width="1.51"/><path d="M933,-113L845,-36L924,-17Z" fill="#a7d6da" stroke="#a7d6da" stroke-width="1.51"/><path d="M1018,1026L1187,1021L1108,994Z" fill="#236fa7" stroke="#236fa7" stroke-width="1.51"/><path d="M1108,994L1187,1021L1212,928Z" fill="#1d6da9" stroke="#1d6da9" stroke-width="1.51"/><path d="M1212,928L1296,931L1295,856Z" fill="#1570b0" stroke="#1570b0" stroke-width="1.51"/><path d="M1363,222L1297,132L1267,225Z" fill="#7eaaba" stroke="#7eaaba" stroke-width="1.51"/><path d="M745,-102L659,-102L690,-40Z" fill="#b8e3d4" stroke="#b8e3d4" stroke-width="1.51"/><path d="M601,-127L659,-102L745,-102Z" fill="#bde5d5" stroke="#bde5d5" stroke-width="1.51"/><path d="M142,325L238,397L244,322Z" fill="#b7e3c3" stroke="#b7e3c3" stroke-width="1.51"/><path d="M82,490L153,583L177,511Z" fill="#a5d8d0" stroke="#a5d8d0" stroke-width="1.51"/><path d="M177,511L153,583L230,563Z" fill="#a0d5cf" stroke="#a0d5cf" stroke-width="1.51"/><path d="M1366,315L1363,222L1273,311Z" fill="#72a4b4" stroke="#72a4b4" stroke-width="1.51"/><path d="M1435,252L1363,222L1366,315Z" fill="#739fb2" stroke="#739fb2" stroke-width="1.51"/><path d="M1030,-45L933,-113L924,-17Z" fill="#a3d1da" stroke="#a3d1da" stroke-width="1.51"/><path d="M1187,49L1122,-35L1093,62Z" fill="#93bfcc" stroke="#93bfcc" stroke-width="1.51"/><path d="M1187,-43L1122,-35L1187,49Z" fill="#94bdcd" stroke="#94bdcd" stroke-width="1.51"/><path d="M1278,1014L1296,931L1212,928Z" fill="#1569a8" stroke="#1569a8" stroke-width="1.51"/><path d="M1295,856L1387,855L1358,743Z" fill="#1873b2" stroke="#1873b2" stroke-width="1.51"/><path d="M1020,-123L933,-113L1030,-45Z" fill="#a4cfda" stroke="#a4cfda" stroke-width="1.51"/><path d="M836,-105L601,-127L745,-102Z" fill="#b8e2d7" stroke="#b8e2d7" stroke-width="1.51"/><path d="M400,75L347,43L345,161Z" fill="#c9eac6" stroke="#c9eac6" stroke-width="1.51"/><path d="M401,-40L347,43L400,75Z" fill="#ccebca" stroke="#ccebca" stroke-width="1.51"/><path d="M401,-40L400,75L500,-16Z" fill="#caeaca" stroke="#caeaca" stroke-width="1.51"/><path d="M240,1028L349,1006L324,939Z" fill="#7b99ad" stroke="#7b99ad" stroke-width="1.51"/><path d="M324,939L349,1006L401,936Z" fill="#799caf" stroke="#799caf" stroke-width="1.51"/><path d="M1358,743L1438,655L1361,668Z" fill="#2880b7" stroke="#2880b7" stroke-width="1.51"/><path d="M1385,478L1457,398L1387,404Z" fill="#5795b4" stroke="#5795b4" stroke-width="1.51"/><path d="M1387,404L1455,322L1366,315Z" fill="#669ab1" stroke="#669ab1" stroke-width="1.51"/><path d="M1455,763L1438,655L1358,743Z" fill="#2479b2" stroke="#2479b2" stroke-width="1.51"/><path d="M1471,592L1461,486L1367,583Z" fill="#3f8ab7" stroke="#3f8ab7" stroke-width="1.51"/><path d="M153,583L140,668L253,671Z" fill="#98cbd0" stroke="#98cbd0" stroke-width="1.51"/><path d="M249,829L248,926L321,825Z" fill="#85acbd" stroke="#85acbd" stroke-width="1.51"/><path d="M67,573L140,668L153,583Z" fill="#9ed0d4" stroke="#9ed0d4" stroke-width="1.51"/><path d="M140,668L162,745L253,671Z" fill="#94c4cb" stroke="#94c4cb" stroke-width="1.51"/><path d="M240,234L142,325L244,322Z" fill="#bee6c1" stroke="#bee6c1" stroke-width="1.51"/><path d="M250,51L237,147L345,161Z" fill="#cfecc7" stroke="#cfecc7" stroke-width="1.51"/><path d="M1461,486L1457,398L1385,478Z" fill="#5191b2" stroke="#5191b2" stroke-width="1.51"/><path d="M659,-102L601,-127L571,-8Z" fill="#c0e7d1" stroke="#c0e7d1" stroke-width="1.51"/><path d="M933,-113L601,-127L836,-105Z" fill="#b4dfd9" stroke="#b4dfd9" stroke-width="1.51"/><path d="M162,912L248,926L249,829Z" fill="#85aabe" stroke="#85aabe" stroke-width="1.51"/><path d="M161,425L82,490L177,511Z" fill="#abdcce" stroke="#abdcce" stroke-width="1.51"/><path d="M153,222L142,325L240,234Z" fill="#c4e8c4" stroke="#c4e8c4" stroke-width="1.51"/><path d="M1296,931L1387,855L1295,856Z" fill="#126eb0" stroke="#126eb0" stroke-width="1.51"/><path d="M1461,486L1547,392L1457,398Z" fill="#558dac" stroke="#558dac" stroke-width="1.51"/><path d="M1438,655L1471,592L1367,583Z" fill="#3386b9" stroke="#3386b9" stroke-width="1.51"/><path d="M1526,579L1471,592L1526,653Z" fill="#337eb1" stroke="#337eb1" stroke-width="1.51"/><path d="M933,-113L1020,-123L601,-127Z" fill="#b0dbdc" stroke="#b0dbdc" stroke-width="1.51"/><path d="M1102,-116L1020,-123L1030,-45Z" fill="#a0cad8" stroke="#a0cad8" stroke-width="1.51"/><path d="M347,43L250,51L345,161Z" fill="#ceecc8" stroke="#ceecc8" stroke-width="1.51"/><path d="M507,-104L401,-40L500,-16Z" fill="#cbebcd" stroke="#cbebcd" stroke-width="1.51"/><path d="M1297,132L1300,60L1206,136Z" fill="#88b1c1" stroke="#88b1c1" stroke-width="1.51"/><path d="M1122,-35L1102,-116L1030,-45Z" fill="#9cc6d5" stroke="#9cc6d5" stroke-width="1.51"/><path d="M1369,134L1300,60L1297,132Z" fill="#86acbf" stroke="#86acbf" stroke-width="1.51"/><path d="M1369,134L1297,132L1363,222Z" fill="#81a8ba" stroke="#81a8ba" stroke-width="1.51"/><path d="M601,-127L507,-104L571,-8Z" fill="#c5e9cf" stroke="#c5e9cf" stroke-width="1.51"/><path d="M1275,-36L1187,-43L1187,49Z" fill="#92b8cb" stroke="#92b8cb" stroke-width="1.51"/><path d="M1187,1021L1278,1014L1212,928Z" fill="#1968a6" stroke="#1968a6" stroke-width="1.51"/><path d="M1296,931L1372,944L1387,855Z" fill="#0b68ab" stroke="#0b68ab" stroke-width="1.51"/><path d="M1457,398L1455,322L1387,404Z" fill="#6096af" stroke="#6096af" stroke-width="1.51"/><path d="M1522,315L1455,322L1457,398Z" fill="#6492a9" stroke="#6492a9" stroke-width="1.51"/><path d="M1468,162L1369,134L1363,222Z" fill="#7da2b5" stroke="#7da2b5" stroke-width="1.51"/><path d="M1455,322L1435,252L1366,315Z" fill="#6e9bad" stroke="#6e9bad" stroke-width="1.51"/><path d="M162,745L162,823L239,751Z" fill="#8db9c6" stroke="#8db9c6" stroke-width="1.51"/><path d="M83,754L162,823L162,745Z" fill="#8fbac8" stroke="#8fbac8" stroke-width="1.51"/><path d="M1441,823L1358,743L1387,855Z" fill="#1871af" stroke="#1871af" stroke-width="1.51"/><path d="M1441,823L1455,763L1358,743Z" fill="#1b72ae" stroke="#1b72ae" stroke-width="1.51"/><path d="M237,147L153,222L240,234Z" fill="#c9eac6" stroke="#c9eac6" stroke-width="1.51"/><path d="M156,140L153,222L237,147Z" fill="#cfecc9" stroke="#cfecc9" stroke-width="1.51"/><path d="M1187,-43L1102,-116L1122,-35Z" fill="#99c2d2" stroke="#99c2d2" stroke-width="1.51"/><path d="M77,412L82,490L161,425Z" fill="#b0e0cd" stroke="#b0e0cd" stroke-width="1.51"/><path d="M140,668L83,754L162,745Z" fill="#94c1cc" stroke="#94c1cc" stroke-width="1.51"/><path d="M77,412L161,425L142,325Z" fill="#b6e2c9" stroke="#b6e2c9" stroke-width="1.51"/><path d="M1440,908L1441,823L1387,855Z" fill="#1068a9" stroke="#1068a9" stroke-width="1.51"/><path d="M401,-40L313,-7L347,43Z" fill="#d1edcd" stroke="#d1edcd" stroke-width="1.51"/><path d="M347,-110L313,-7L401,-40Z" fill="#d4efd1" stroke="#d4efd1" stroke-width="1.51"/><path d="M1364,994L1372,944L1296,931Z" fill="#0c63a5" stroke="#0c63a5" stroke-width="1.51"/><path d="M313,-7L250,51L347,43Z" fill="#d3eecd" stroke="#d3eecd" stroke-width="1.51"/><path d="M70,311L77,412L142,325Z" fill="#bde5c9" stroke="#bde5c9" stroke-width="1.51"/><path d="M-22,478L67,573L82,490Z" fill="#abdad4" stroke="#abdad4" stroke-width="1.51"/><path d="M82,490L67,573L153,583Z" fill="#a4d7d3" stroke="#a4d7d3" stroke-width="1.51"/><path d="M1471,592L1521,508L1461,486Z" fill="#4387b1" stroke="#4387b1" stroke-width="1.51"/><path d="M1455,322L1522,315L1435,252Z" fill="#6c96a7" stroke="#6c96a7" stroke-width="1.51"/><path d="M1526,579L1521,508L1471,592Z" fill="#3d82af" stroke="#3d82af" stroke-width="1.51"/><path d="M1471,592L1438,655L1526,653Z" fill="#307eb2" stroke="#307eb2" stroke-width="1.51"/><path d="M1369,134L1349,42L1300,60Z" fill="#87abc0" stroke="#87abc0" stroke-width="1.51"/><path d="M1300,60L1275,-36L1187,49Z" fill="#8eb4c7" stroke="#8eb4c7" stroke-width="1.51"/><path d="M1187,-43L1200,-130L1102,-116Z" fill="#9ac0d3" stroke="#9ac0d3" stroke-width="1.51"/><path d="M1450,50L1349,42L1369,134Z" fill="#86a6bd" stroke="#86a6bd" stroke-width="1.51"/><path d="M1526,653L1438,655L1526,748Z" fill="#2875ac" stroke="#2875ac" stroke-width="1.51"/><path d="M1349,42L1275,-36L1300,60Z" fill="#8cafc5" stroke="#8cafc5" stroke-width="1.51"/><path d="M1278,1014L1364,994L1296,931Z" fill="#1162a3" stroke="#1162a3" stroke-width="1.51"/><path d="M1372,944L1440,908L1387,855Z" fill="#0965a9" stroke="#0965a9" stroke-width="1.51"/><path d="M162,823L162,912L249,829Z" fill="#89aec2" stroke="#89aec2" stroke-width="1.51"/><path d="M248,926L240,1028L324,939Z" fill="#7f9eb2" stroke="#7f9eb2" stroke-width="1.51"/><path d="M74,847L162,912L162,823Z" fill="#8bafc4" stroke="#8bafc4" stroke-width="1.51"/><path d="M74,249L70,311L142,325Z" fill="#c4e8c7" stroke="#c4e8c7" stroke-width="1.51"/><path d="M250,51L156,140L237,147Z" fill="#d2eecb" stroke="#d2eecb" stroke-width="1.51"/><path d="M67,573L63,663L140,668Z" fill="#9ccdd4" stroke="#9ccdd4" stroke-width="1.51"/><path d="M1526,748L1438,655L1455,763Z" fill="#2373ac" stroke="#2373ac" stroke-width="1.51"/><path d="M1526,748L1455,763L1545,843Z" fill="#1b68a5" stroke="#1b68a5" stroke-width="1.51"/><path d="M313,-7L253,-10L250,51Z" fill="#d6efd0" stroke="#d6efd0" stroke-width="1.51"/><path d="M250,51L140,61L156,140Z" fill="#d5efcf" stroke="#d5efcf" stroke-width="1.51"/><path d="M507,-104L433,-130L401,-40Z" fill="#d0edd0" stroke="#d0edd0" stroke-width="1.51"/><path d="M601,-127L433,-130L507,-104Z" fill="#ccebd0" stroke="#ccebd0" stroke-width="1.51"/><path d="M1200,-130L433,-130L601,-127Z" fill="#b8e2d9" stroke="#b8e2d9" stroke-width="1.51"/><path d="M63,663L83,754L140,668Z" fill="#97c5d0" stroke="#97c5d0" stroke-width="1.51"/><path d="M349,1006L240,1028L428,1015Z" fill="#7895a8" stroke="#7895a8" stroke-width="1.51"/><path d="M428,1015L240,1028L689,1021Z" fill="#6e90a3" stroke="#6e90a3" stroke-width="1.51"/><path d="M689,1021L240,1028L1018,1026Z" fill="#588aa5" stroke="#588aa5" stroke-width="1.51"/><path d="M162,912L240,1028L248,926Z" fill="#82a0b6" stroke="#82a0b6" stroke-width="1.51"/><path d="M77,412L-22,478L82,490Z" fill="#b1dfd1" stroke="#b1dfd1" stroke-width="1.51"/><path d="M-34,594L-12,671L63,663Z" fill="#a0ced7" stroke="#a0ced7" stroke-width="1.51"/><path d="M74,249L142,325L153,222Z" fill="#c6e9c7" stroke="#c6e9c7" stroke-width="1.51"/><path d="M1439,995L1440,908L1372,944Z" fill="#095da0" stroke="#095da0" stroke-width="1.51"/><path d="M1435,252L1468,162L1363,222Z" fill="#789eb1" stroke="#789eb1" stroke-width="1.51"/><path d="M1547,392L1522,315L1457,398Z" fill="#5f8ea7" stroke="#5f8ea7" stroke-width="1.51"/><path d="M1547,392L1461,486L1521,508Z" fill="#4e89ab" stroke="#4e89ab" stroke-width="1.51"/><path d="M252,-126L253,-10L313,-7Z" fill="#daf1d4" stroke="#daf1d4" stroke-width="1.51"/><path d="M1541,221L1468,162L1435,252Z" fill="#7698ab" stroke="#7698ab" stroke-width="1.51"/><path d="M1268,-105L1187,-43L1275,-36Z" fill="#94b7cd" stroke="#94b7cd" stroke-width="1.51"/><path d="M1526,653L1547,392L1526,579Z" fill="#4081ac" stroke="#4081ac" stroke-width="1.51"/><path d="M1526,579L1547,392L1521,508Z" fill="#4884aa" stroke="#4884aa" stroke-width="1.51"/><path d="M1526,653L1545,843L1547,392Z" fill="#2f78ac" stroke="#2f78ac" stroke-width="1.51"/><path d="M1545,843L1455,763L1441,823Z" fill="#1868a6" stroke="#1868a6" stroke-width="1.51"/><path d="M1020,-123L1200,-130L601,-127Z" fill="#aad6e0" stroke="#aad6e0" stroke-width="1.51"/><path d="M1102,-116L1200,-130L1020,-123Z" fill="#9fc6d7" stroke="#9fc6d7" stroke-width="1.51"/><path d="M1268,-105L1200,-130L1187,-43Z" fill="#98bad0" stroke="#98bad0" stroke-width="1.51"/><path d="M1268,-105L1275,-36L1365,-102Z" fill="#93b3cc" stroke="#93b3cc" stroke-width="1.51"/><path d="M90,134L74,249L153,222Z" fill="#ceeccb" stroke="#ceeccb" stroke-width="1.51"/><path d="M90,134L153,222L156,140Z" fill="#d1edcc" stroke="#d1edcc" stroke-width="1.51"/><path d="M433,-130L347,-110L401,-40Z" fill="#d5eed2" stroke="#d5eed2" stroke-width="1.51"/><path d="M1366,-20L1275,-36L1349,42Z" fill="#8daec6" stroke="#8daec6" stroke-width="1.51"/><path d="M1450,50L1366,-20L1349,42Z" fill="#88a8c1" stroke="#88a8c1" stroke-width="1.51"/><path d="M162,912L144,1025L240,1028Z" fill="#829cb3" stroke="#829cb3" stroke-width="1.51"/><path d="M83,754L74,847L162,823Z" fill="#8fb6c8" stroke="#8fb6c8" stroke-width="1.51"/><path d="M-7,841L74,847L83,754Z" fill="#91b6cb" stroke="#91b6cb" stroke-width="1.51"/><path d="M162,-16L250,51L253,-10Z" fill="#d8f0d2" stroke="#d8f0d2" stroke-width="1.51"/><path d="M162,-16L140,61L250,51Z" fill="#d9f0d3" stroke="#d9f0d3" stroke-width="1.51"/><path d="M1440,908L1545,843L1441,823Z" fill="#1163a3" stroke="#1163a3" stroke-width="1.51"/><path d="M1364,994L1439,995L1372,944Z" fill="#0a5b9f" stroke="#0a5b9f" stroke-width="1.51"/><path d="M1278,1014L1439,995L1364,994Z" fill="#0a5b9e" stroke="#0a5b9e" stroke-width="1.51"/><path d="M140,61L90,134L156,140Z" fill="#d6efcf" stroke="#d6efcf" stroke-width="1.51"/><path d="M1468,162L1450,50L1369,134Z" fill="#81a1b6" stroke="#81a1b6" stroke-width="1.51"/><path d="M1522,315L1541,221L1435,252Z" fill="#6f94a7" stroke="#6f94a7" stroke-width="1.51"/><path d="M1547,392L1541,221L1522,315Z" fill="#678fa1" stroke="#678fa1" stroke-width="1.51"/><path d="M1366,-20L1365,-102L1275,-36Z" fill="#90aec9" stroke="#90aec9" stroke-width="1.51"/><path d="M1538,158L1450,50L1468,162Z" fill="#7f9bb0" stroke="#7f9bb0" stroke-width="1.51"/><path d="M-17,389L-22,478L77,412Z" fill="#b6e2d1" stroke="#b6e2d1" stroke-width="1.51"/><path d="M63,663L-12,671L83,754Z" fill="#9ac6d3" stroke="#9ac6d3" stroke-width="1.51"/><path d="M-17,389L77,412L-10,329Z" fill="#bde5ce" stroke="#bde5ce" stroke-width="1.51"/><path d="M77,412L70,311L-10,329Z" fill="#bfe6cc" stroke="#bfe6cc" stroke-width="1.51"/><path d="M1526,748L1545,843L1526,653Z" fill="#1e6aa5" stroke="#1e6aa5" stroke-width="1.51"/><path d="M1536,905L1545,843L1440,908Z" fill="#0d5d9f" stroke="#0d5d9f" stroke-width="1.51"/><path d="M-34,594L63,663L67,573Z" fill="#a1d2d9" stroke="#a1d2d9" stroke-width="1.51"/><path d="M-10,329L70,311L74,249Z" fill="#c6e9c9" stroke="#c6e9c9" stroke-width="1.51"/><path d="M85,992L144,1025L162,912Z" fill="#859eb7" stroke="#859eb7" stroke-width="1.51"/><path d="M69,926L162,912L74,847Z" fill="#8aabc3" stroke="#8aabc3" stroke-width="1.51"/><path d="M-27,226L-10,329L74,249Z" fill="#cbebcc" stroke="#cbebcc" stroke-width="1.51"/><path d="M1541,221L1538,158L1468,162Z" fill="#7896a9" stroke="#7896a9" stroke-width="1.51"/><path d="M-7,841L69,926L74,847Z" fill="#8eafc8" stroke="#8eafc8" stroke-width="1.51"/><path d="M-10,138L-27,226L74,249Z" fill="#d3eed0" stroke="#d3eed0" stroke-width="1.51"/><path d="M140,61L57,54L90,134Z" fill="#daf0d3" stroke="#daf0d3" stroke-width="1.51"/><path d="M163,-105L162,-16L253,-10Z" fill="#def2d8" stroke="#def2d8" stroke-width="1.51"/><path d="M-93,483L-34,594L-22,478Z" fill="#afdcd9" stroke="#afdcd9" stroke-width="1.51"/><path d="M-22,478L-34,594L67,573Z" fill="#a9d9d8" stroke="#a9d9d8" stroke-width="1.51"/><path d="M1534,993L1536,905L1440,908Z" fill="#09579a" stroke="#09579a" stroke-width="1.51"/><path d="M347,-110L252,-126L313,-7Z" fill="#dbf1d5" stroke="#dbf1d5" stroke-width="1.51"/><path d="M433,-130L252,-126L347,-110Z" fill="#dbf1d6" stroke="#dbf1d6" stroke-width="1.51"/><path d="M1461,-44L1365,-102L1366,-20Z" fill="#8ea8c5" stroke="#8ea8c5" stroke-width="1.51"/><path d="M1268,-105L1365,-102L1200,-130Z" fill="#97b5d0" stroke="#97b5d0" stroke-width="1.51"/><path d="M1461,-44L1366,-20L1450,50Z" fill="#89a4be" stroke="#89a4be" stroke-width="1.51"/><path d="M69,926L85,992L162,912Z" fill="#87a4bd" stroke="#87a4bd" stroke-width="1.51"/><path d="M-25,940L85,992L69,926Z" fill="#8aa4bf" stroke="#8aa4bf" stroke-width="1.51"/><path d="M-12,671L-27,762L83,754Z" fill="#98c2d2" stroke="#98c2d2" stroke-width="1.51"/><path d="M-111,677L-27,762L-12,671Z" fill="#9ec7d6" stroke="#9ec7d6" stroke-width="1.51"/><path d="M-27,762L-7,841L83,754Z" fill="#95bbce" stroke="#95bbce" stroke-width="1.51"/><path d="M-10,138L74,249L90,134Z" fill="#d4efcf" stroke="#d4efcf" stroke-width="1.51"/><path d="M-107,399L-22,478L-17,389Z" fill="#bae4d4" stroke="#bae4d4" stroke-width="1.51"/><path d="M-107,399L-93,483L-22,478Z" fill="#b8e2d6" stroke="#b8e2d6" stroke-width="1.51"/><path d="M85,-27L57,54L140,61Z" fill="#ddf2d7" stroke="#ddf2d7" stroke-width="1.51"/><path d="M85,-27L140,61L162,-16Z" fill="#ddf2d7" stroke="#ddf2d7" stroke-width="1.51"/><path d="M1537,-12L1461,-44L1450,50Z" fill="#869eb9" stroke="#869eb9" stroke-width="1.51"/><path d="M1439,995L1534,993L1440,908Z" fill="#0a5698" stroke="#0a5698" stroke-width="1.51"/><path d="M1536,905L1534,993L1545,843Z" fill="#095699" stroke="#095699" stroke-width="1.51"/><path d="M1278,1014L1534,993L1439,995Z" fill="#095699" stroke="#095699" stroke-width="1.51"/><path d="M-107,399L-17,389L-96,303Z" fill="#c3e8d2" stroke="#c3e8d2" stroke-width="1.51"/><path d="M-34,594L-111,677L-12,671Z" fill="#a3cfda" stroke="#a3cfda" stroke-width="1.51"/><path d="M252,-126L163,-105L253,-10Z" fill="#dff3d9" stroke="#dff3d9" stroke-width="1.51"/><path d="M-96,303L-17,389L-10,329Z" fill="#c5e8cf" stroke="#c5e8cf" stroke-width="1.51"/><path d="M-1,71L-10,138L90,134Z" fill="#dbf1d4" stroke="#dbf1d4" stroke-width="1.51"/><path d="M-1,71L90,134L57,54Z" fill="#dbf1d5" stroke="#dbf1d5" stroke-width="1.51"/><path d="M1545,843L1558,57L1547,392Z" fill="#5387a5" stroke="#5387a5" stroke-width="1.51"/><path d="M1547,392L1558,57L1541,221Z" fill="#7291a4" stroke="#7291a4" stroke-width="1.51"/><path d="M1541,221L1558,57L1538,158Z" fill="#7b94a8" stroke="#7b94a8" stroke-width="1.51"/><path d="M1538,158L1558,57L1450,50Z" fill="#8098af" stroke="#8098af" stroke-width="1.51"/><path d="M163,-105L85,-27L162,-16Z" fill="#e1f4da" stroke="#e1f4da" stroke-width="1.51"/><path d="M-96,303L-10,329L-27,226Z" fill="#ccebce" stroke="#ccebce" stroke-width="1.51"/><path d="M-27,762L-88,850L-7,841Z" fill="#96b8cf" stroke="#96b8cf" stroke-width="1.51"/><path d="M-93,483L-117,579L-34,594Z" fill="#addadc" stroke="#addadc" stroke-width="1.51"/><path d="M-107,399L-117,579L-93,483Z" fill="#b6e0da" stroke="#b6e0da" stroke-width="1.51"/><path d="M-89,231L-96,303L-27,226Z" fill="#d1edd1" stroke="#d1edd1" stroke-width="1.51"/><path d="M-23,-26L-1,71L57,54Z" fill="#e1f4db" stroke="#e1f4db" stroke-width="1.51"/><path d="M1558,57L1537,-12L1450,50Z" fill="#839ab3" stroke="#839ab3" stroke-width="1.51"/><path d="M1461,-44L1459,-113L1365,-102Z" fill="#8fa7c4" stroke="#8fa7c4" stroke-width="1.51"/><path d="M-89,231L-27,226L-107,156Z" fill="#d8f0d4" stroke="#d8f0d4" stroke-width="1.51"/><path d="M-117,579L-111,677L-34,594Z" fill="#a8d4de" stroke="#a8d4de" stroke-width="1.51"/><path d="M-7,841L-25,940L69,926Z" fill="#8eabc7" stroke="#8eabc7" stroke-width="1.51"/><path d="M-88,850L-25,940L-7,841Z" fill="#92b0cb" stroke="#92b0cb" stroke-width="1.51"/><path d="M85,992L-16,1027L144,1025Z" fill="#859ab4" stroke="#859ab4" stroke-width="1.51"/><path d="M1529,-117L1459,-113L1461,-44Z" fill="#8da0be" stroke="#8da0be" stroke-width="1.51"/><path d="M1365,-102L1459,-113L1200,-130Z" fill="#94b0cd" stroke="#94b0cd" stroke-width="1.51"/><path d="M-107,156L-27,226L-10,138Z" fill="#daf1d4" stroke="#daf1d4" stroke-width="1.51"/><path d="M-96,303L-107,156L-107,399Z" fill="#cfecd1" stroke="#cfecd1" stroke-width="1.51"/><path d="M-111,677L-114,763L-27,762Z" fill="#9ec4d6" stroke="#9ec4d6" stroke-width="1.51"/><path d="M-117,579L-114,763L-111,677Z" fill="#a4cddb" stroke="#a4cddb" stroke-width="1.51"/><path d="M-114,763L-88,850L-27,762Z" fill="#99bbd1" stroke="#99bbd1" stroke-width="1.51"/><path d="M-98,1024L-16,1027L-25,940Z" fill="#8c9fbc" stroke="#8c9fbc" stroke-width="1.51"/><path d="M-25,940L-16,1027L85,992Z" fill="#899fbb" stroke="#899fbb" stroke-width="1.51"/><path d="M144,1025L-16,1027L240,1028Z" fill="#8297b0" stroke="#8297b0" stroke-width="1.51"/><path d="M-103,47L-107,156L-10,138Z" fill="#e0f3d9" stroke="#e0f3d9" stroke-width="1.51"/><path d="M85,-27L-23,-26L57,54Z" fill="#e1f4dc" stroke="#e1f4dc" stroke-width="1.51"/><path d="M163,-105L65,-96L85,-27Z" fill="#e4f5de" stroke="#e4f5de" stroke-width="1.51"/><path d="M-21,-121L65,-96L163,-105Z" fill="#e8f6e2" stroke="#e8f6e2" stroke-width="1.51"/><path d="M-103,47L-10,138L-1,71Z" fill="#e0f3da" stroke="#e0f3da" stroke-width="1.51"/><path d="M-89,231L-107,156L-96,303Z" fill="#d6efd3" stroke="#d6efd3" stroke-width="1.51"/><path d="M-107,399L-107,156L-117,579Z" fill="#c3e8d5" stroke="#c3e8d5" stroke-width="1.51"/><path d="M1537,-12L1529,-117L1461,-44Z" fill="#899db9" stroke="#899db9" stroke-width="1.51"/><path d="M1459,-113L1529,-117L1200,-130Z" fill="#92abc9" stroke="#92abc9" stroke-width="1.51"/><path d="M1558,57L1529,-117L1537,-12Z" fill="#8599b4" stroke="#8599b4" stroke-width="1.51"/><path d="M65,-96L-23,-26L85,-27Z" fill="#e5f5df" stroke="#e5f5df" stroke-width="1.51"/><path d="M-88,850L-106,944L-25,940Z" fill="#92acca" stroke="#92acca" stroke-width="1.51"/><path d="M-114,763L-106,944L-88,850Z" fill="#97b4d0" stroke="#97b4d0" stroke-width="1.51"/><path d="M-23,-26L-103,47L-1,71Z" fill="#e4f5de" stroke="#e4f5de" stroke-width="1.51"/><path d="M-106,944L-98,1024L-25,940Z" fill="#8fa3c1" stroke="#8fa3c1" stroke-width="1.51"/><path d="M-23,-26L-99,-34L-103,47Z" fill="#e8f6e2" stroke="#e8f6e2" stroke-width="1.51"/><path d="M65,-96L-21,-121L-23,-26Z" fill="#eaf7e3" stroke="#eaf7e3" stroke-width="1.51"/><path d="M252,-126L-21,-121L163,-105Z" fill="#e6f6e0" stroke="#e6f6e0" stroke-width="1.51"/><path d="M433,-130L-21,-121L252,-126Z" fill="#e3f4dc" stroke="#e3f4dc" stroke-width="1.51"/><path d="M-21,-121L-99,-34L-23,-26Z" fill="#ebf7e5" stroke="#ebf7e5" stroke-width="1.51"/><path d="M-21,-121L-116,-113L-99,-34Z" fill="#eff9e8" stroke="#eff9e8" stroke-width="1.51"/><path d="M-99,-34L-116,-113L-103,47Z" fill="#ecf8e5" stroke="#ecf8e5" stroke-width="1.51"/><path d="M-103,47L-116,-113L-107,156Z" fill="#e8f6e1" stroke="#e8f6e1" stroke-width="1.51"/><path d="M-107,156L-116,-113L-117,579Z" fill="#d9f0d6" stroke="#d9f0d6" stroke-width="1.51"/></svg>